<?xml version="1.0" encoding="utf-8"?>
<!-- Generator: Adobe Illustrator 19.1.0, SVG Export Plug-In . SVG Version: 6.00 Build 0)  -->
<svg version="1.1" id="Layer_1" xmlns="http://www.w3.org/2000/svg" xmlns:xlink="http://www.w3.org/1999/xlink" x="0px" y="0px"
	 viewBox="0 0 660 112" style="enable-background:new 0 0 660 112;" xml:space="preserve">
<style type="text/css">
	.st0{opacity:0.8;}
	.st1{fill:#989898;}
	.st2{opacity:0.72;fill:#969696;}
	.st3{opacity:0.72;fill:#676767;}
	.st4{opacity:0.69;fill:#231C1E;}
	.st5{fill:#F17622;}
</style>
<g>
	<g>
		<g>
			<g class="st0">
				<g>
					<path class="st1" d="M209.7,78.5V40.3h-6.4v-6.8h21.7v6.8h-6.3v38.2H209.7z"/>
					<path class="st1" d="M232.9,78.5v-45h8.9v18.4h6.4V33.5h8.9v45h-8.9V58.4h-6.4v20.1H232.9z"/>
					<path class="st1" d="M267.3,78.5v-45h9.7c2.2,0,4.1,0.2,5.8,0.6c1.7,0.4,3.1,1.1,4.4,2s2.2,2.1,2.9,3.7c0.7,1.5,1,3.4,1,5.5
						c0,0.9,0,1.8-0.1,2.5c-0.1,0.7-0.2,1.6-0.5,2.5c-0.2,0.9-0.6,1.8-1,2.5c-0.4,0.7-1,1.4-1.8,2.1c-0.8,0.7-1.7,1.3-2.7,1.7
						c2.6,8.6,4.9,15.8,6.9,21.7h-9.2l-5-20.7h-1.5v20.7H267.3z M276.2,52.2h2.5c0.7,0,1.3-0.2,1.8-0.7c0.5-0.5,0.8-1.1,1.1-1.8
						c0.2-0.7,0.4-1.4,0.5-2c0.1-0.6,0.1-1.2,0.1-1.7s0-1.1-0.1-1.6c-0.1-0.6-0.2-1.2-0.4-1.9c-0.2-0.7-0.5-1.3-0.9-1.7
						c-0.4-0.4-1-0.7-1.6-0.7h-3V52.2z"/>
					<path class="st1" d="M305.1,78.5V63.6l-8.3-30.1h8.4l4.1,19.8c0.5-2.2,1.3-5.5,2.3-9.9c1-4.4,1.8-7.7,2.2-9.9h8.1l-8.3,30.1
						v14.9H305.1z"/>
					<path class="st1" d="M329.5,78.5v-45h10.6l4.7,30l5.1-30h10.3v45h-6.5l-0.2-31.6c-0.5,3.2-1.3,8.5-2.6,15.8
						c-1.2,7.3-2.1,12.6-2.6,15.8h-6.6l-5.4-31.8l-0.2,31.8H329.5z"/>
					<path class="st1" d="M370.4,78.5v-45h9.7c2.2,0,4.1,0.2,5.8,0.6c1.7,0.4,3.1,1.1,4.4,2s2.2,2.1,2.9,3.7c0.7,1.5,1,3.4,1,5.5
						c0,0.9,0,1.8-0.1,2.5c-0.1,0.7-0.2,1.6-0.5,2.5c-0.2,0.9-0.6,1.8-1,2.5c-0.4,0.7-1,1.4-1.8,2.1c-0.8,0.7-1.7,1.3-2.7,1.7
						c2.6,8.6,4.9,15.8,6.9,21.7h-9.2l-5-20.7h-1.5v20.7H370.4z M379.3,52.2h2.5c0.7,0,1.3-0.2,1.8-0.7c0.5-0.5,0.8-1.1,1.1-1.8
						c0.2-0.7,0.4-1.4,0.5-2c0.1-0.6,0.1-1.2,0.1-1.7s0-1.1-0.1-1.6c-0.1-0.6-0.2-1.2-0.4-1.9c-0.2-0.7-0.5-1.3-0.9-1.7
						c-0.4-0.4-1-0.7-1.6-0.7h-3V52.2z"/>
					<path class="st1" d="M416.3,65.2l9-1.7c0,0.9,0,1.7,0,2.3c0,0.7,0.1,1.4,0.3,2.2c0.1,0.8,0.3,1.4,0.6,1.9
						c0.2,0.5,0.6,0.9,1,1.3c0.4,0.3,0.9,0.5,1.5,0.5c1.8,0,2.6-1.1,2.6-3.3c0-3-1.7-6-5.2-9l-2.8-2.3c-0.9-0.7-1.6-1.3-2.1-1.8
						c-0.5-0.5-1.1-1.1-1.8-1.9c-0.7-0.8-1.3-1.6-1.7-2.4c-0.4-0.8-0.7-1.7-1-2.7c-0.3-1.1-0.4-2.2-0.4-3.4c0-3.5,1.1-6.3,3.4-8.3
						c2.3-2,5.3-3.1,9-3.1c3.1,0,5.8,1.1,7.9,3.3c2.2,2.2,3.3,4.8,3.3,7.9l0,0.3c0,0.2,0,0.4,0,0.7l-9.2,1.2c0-0.2,0-0.5,0-0.8
						c0-0.4,0-0.7,0-0.9c0-0.6,0-1.1-0.1-1.7c-0.1-0.5-0.2-1.1-0.4-1.6c-0.2-0.5-0.5-0.9-0.9-1.3c-0.4-0.3-0.9-0.5-1.4-0.5
						c-1,0-1.7,0.4-2.2,1.1c-0.5,0.8-0.7,1.6-0.7,2.7c0,0.9,0.1,1.7,0.4,2.5c0.3,0.8,0.7,1.5,1.3,2.2c0.6,0.7,1.1,1.2,1.6,1.7
						c0.5,0.4,1.1,1,2,1.6c0.8,0.6,1.4,1.1,1.7,1.4c1.3,1.1,2.3,2.1,3.2,3.1c0.9,1,1.7,2,2.4,3.2c0.8,1.2,1.3,2.5,1.7,3.9
						c0.4,1.4,0.6,2.9,0.6,4.5c0,3-1.1,5.5-3.3,7.4c-2.2,1.9-4.9,2.9-8,2.9c-2,0-3.8-0.4-5.4-1.1c-1.6-0.7-2.9-1.7-3.8-3
						c-1-1.3-1.7-2.7-2.2-4.2C416.7,68.7,416.4,67,416.3,65.2z"/>
					<path class="st1" d="M448,63.4V48.9c0-10.2,4.3-15.3,12.9-15.3c8.6,0,12.9,5.1,12.9,15.3v14.3c0,1.7-0.1,3.3-0.4,4.8
						c-0.3,1.5-0.7,2.9-1.3,4.2c-0.6,1.3-1.4,2.4-2.4,3.4c-1,0.9-2.2,1.6-3.7,2.2c-1.5,0.5-3.2,0.8-5.1,0.8c-1.9,0-3.6-0.3-5.1-0.8
						c-1.5-0.5-2.7-1.2-3.7-2.1c-1-0.9-1.8-2-2.4-3.3c-0.6-1.3-1.1-2.7-1.3-4.1C448.1,66.7,448,65.1,448,63.4z M464.8,65.4V46.7
						c0-4.3-1.3-6.4-4-6.4c-0.8,0-1.5,0.2-2,0.6c-0.6,0.4-1,0.9-1.2,1.6c-0.3,0.7-0.4,1.4-0.5,2c-0.1,0.7-0.2,1.4-0.2,2.2v18.7
						c0,4.2,1.3,6.4,4,6.4C463.5,71.7,464.8,69.6,464.8,65.4z"/>
					<path class="st1" d="M483.3,78.5v-45h18.3v6.2h-9.4V52h6.7v6.4h-6.7v20.1H483.3z"/>
					<path class="st1" d="M513.4,78.5V40.3H507v-6.8h21.7v6.8h-6.3v38.2H513.4z"/>
					<path class="st1" d="M540.6,78.5l-6.1-45h7.6l2.7,29.8l3.8-29.8h6.5l3.7,29.6l2.9-29.6h7.6l-6.2,45h-7.6L551.8,49l-3.6,29.4
						H540.6z"/>
					<path class="st1" d="M573.6,78.5l9.5-45h7.9l9.5,45h-8.8l-1.8-9.6h-5.7l-1.7,9.6H573.6z M584.7,63.2h4.5L587,46.6L584.7,63.2z"
						/>
					<path class="st1" d="M608.2,78.5v-45h9.7c2.2,0,4.1,0.2,5.8,0.6c1.7,0.4,3.1,1.1,4.4,2c1.3,0.9,2.2,2.1,2.9,3.7
						c0.7,1.5,1,3.4,1,5.5c0,0.9,0,1.8-0.1,2.5c-0.1,0.7-0.2,1.6-0.5,2.5c-0.2,0.9-0.6,1.8-1,2.5c-0.4,0.7-1,1.4-1.8,2.1
						s-1.7,1.3-2.7,1.7c2.6,8.6,4.9,15.8,6.9,21.7h-9.2l-5-20.7h-1.5v20.7H608.2z M617.1,52.2h2.5c0.7,0,1.3-0.2,1.8-0.7
						c0.5-0.5,0.8-1.1,1.1-1.8c0.2-0.7,0.4-1.4,0.5-2c0.1-0.6,0.1-1.2,0.1-1.7s0-1.1-0.1-1.6c-0.1-0.6-0.2-1.2-0.4-1.9
						c-0.2-0.7-0.5-1.3-0.9-1.7c-0.4-0.4-1-0.7-1.6-0.7h-3V52.2z"/>
					<path class="st1" d="M640.6,78.5v-45H659v6.2h-9.4V52h6.7v6.4h-6.7v13.8h9.4v6.2H640.6z"/>
				</g>
			</g>
		</g>
	</g>
	<g>
		<g>
			<g>
				<path class="st2" d="M35.6,54c0,0,0.1-38.8,41.2-51.2c9.6-2.9,43.9-6.8,63.6,29C140.4,31.8,92.3,63.7,35.6,54z"/>
				<path class="st2" d="M49.3,92.3c23.6,26.4,55.5,17,55.5,17c23.9-6.7,34.9-23.6,39.1-38C98.4,106.6,49.3,92.3,49.3,92.3z"/>
				<path class="st3" d="M33.7,53.8c0,0-25.7,13.4-11.6,22.2c3.1,1.9,21.1,8.6,75.2-8.9c0,0,30.9-8.8,46.8-22.1
					c0,0-52.8,45-125.9,42.1C9,86.7-22.6,81.6,33.7,53.8z"/>
				<path class="st4" d="M45.3,91c0,0,73.4-5.6,110.7-39.3c0,0,14-13.4-14-19c0,0,45.7-2.1,38.2,14C177,53.6,142.6,89.9,45.3,91z"/>
				<path class="st5" d="M168.9,67.2c-1.1,9.1-9.4,15.6-18.5,14.5c-9.2-1.1-15.7-9.4-14.6-18.5c1.1-9.1,9.4-15.6,18.6-14.5
					C163.5,49.8,170,58.1,168.9,67.2z"/>
			</g>
		</g>
	</g>
</g>
</svg>
